<svg id="visual" viewBox="0 0 900 600" width="900" height="600" xmlns="http://www.w3.org/2000/svg" xmlns:xlink="http://www.w3.org/1999/xlink" version="1.1"><rect x="0" y="0" width="900" height="600" fill="#d59330"></rect><defs><linearGradient id="grad1_0" x1="33.3%" y1="0%" x2="100%" y2="100%"><stop offset="20%" stop-color="#d59330" stop-opacity="1"></stop><stop offset="80%" stop-color="#d59330" stop-opacity="1"></stop></linearGradient></defs><defs><linearGradient id="grad2_0" x1="0%" y1="0%" x2="66.7%" y2="100%"><stop offset="20%" stop-color="#d59330" stop-opacity="1"></stop><stop offset="80%" stop-color="#d59330" stop-opacity="1"></stop></linearGradient></defs><g transform="translate(900, 0)"><path d="M0 162.2C-21.8 160.7 -43.7 159.1 -62.1 149.9C-80.5 140.7 -95.6 124 -107.5 107.5C-119.4 90.9 -128.1 74.5 -136.7 56.6C-145.3 38.7 -153.8 19.4 -162.2 0L0 0Z" fill="#010102"></path></g><g transform="translate(0, 600)"><path d="M0 -162.2C23.5 -162.1 47.1 -162 62.1 -149.9C77.1 -137.8 83.6 -113.7 98.3 -98.3C113 -82.9 135.8 -76.2 147.8 -61.2C159.8 -46.3 161 -23.1 162.2 0L0 0Z" fill="#010102"></path></g></svg>